# xmcd
#
# Track frame offsets: 
#        150
#        23132
#        39400
#        54310
#        72905
#        103037
#        143410
#        164622
#        184700
#        217140
#
# Disc length: 3159 seconds
#
# Revision: 0
# Processed by: cddbd v1.5.1PL0 Copyright (c) Steve Scherf et al.
# Submitted via: ExactAudioCopy v0.90b4
#
DISCID=890c550a
DTITLE=Rockin' Jake - Full-Time Work
DYEAR=2002
DGENRE=Blues
TTITLE0=Only Love Can Conquer Hate
TTITLE1=Full-Time Work. Part Time Pay
TTITLE2=Hit The Highway
TTITLE3=Goin' Back To The Big Easy
TTITLE4=Slippin' Away
TTITLE5=Blues For NYC
TTITLE6=The Hot Sauce Song
TTITLE7=Show Me Your Pretties 2002
TTITLE8=Christmas Morining Blues
TTITLE9=Amazing Grace
EXTD=
EXTT0=
EXTT1=
EXTT2=
EXTT3=
EXTT4=
EXTT5=
EXTT6=
EXTT7=
EXTT8=
EXTT9=
PLAYORDER=
